<?xml version="1.0" encoding="utf-8"?>
<!-- Generator: Adobe Illustrator 15.0.0, SVG Export Plug-In  -->
<!DOCTYPE svg PUBLIC "-//W3C//DTD SVG 1.0//EN" "http://www.w3.org/TR/2001/REC-SVG-20010904/DTD/svg10.dtd" [
	<!ENTITY ns_flows "http://ns.adobe.com/Flows/1.0/">
]>
<svg version="1.0"
	 xmlns="http://www.w3.org/2000/svg" xmlns:xlink="http://www.w3.org/1999/xlink" xmlns:a="http://ns.adobe.com/AdobeSVGViewerExtensions/3.0/"
	 x="0px" y="0px" width="41px" height="24px" viewBox="-0.54 -0.265 41 24" enable-background="new -0.54 -0.265 41 24"
	 xml:space="preserve">
<defs>
</defs>
<polygon fill="none" stroke="#000000" stroke-width="0.1" stroke-linecap="round" stroke-miterlimit="10" points="0.05,22.864 
	0.05,0.05 39.975,0.05 39.975,22.864 0.05,22.864 "/>
<line fill="none" stroke="#000000" stroke-width="0.1" stroke-linecap="round" stroke-miterlimit="10" x1="0.05" y1="0.05" x2="39.975" y2="0.05"/>
<line fill="none" stroke="#000000" stroke-width="0.1" stroke-linecap="round" stroke-miterlimit="10" x1="0.05" y1="6.509" x2="39.975" y2="6.509"/>
<line fill="none" stroke="#000000" stroke-width="0.1" stroke-linecap="round" stroke-miterlimit="10" x1="0.05" y1="12.912" x2="39.975" y2="12.912"/>
<line fill="none" stroke="#000000" stroke-width="0.1" stroke-linecap="round" stroke-miterlimit="10" x1="0.05" y1="19.31" x2="39.975" y2="19.31"/>
<line fill="none" stroke="#000000" stroke-width="0.1" stroke-linecap="round" stroke-miterlimit="10" x1="0.477" y1="22.864" x2="0.477" y2="0.05"/>
<line fill="none" stroke="#000000" stroke-width="0.1" stroke-linecap="round" stroke-miterlimit="10" x1="7.619" y1="22.864" x2="7.619" y2="0.05"/>
<line fill="none" stroke="#000000" stroke-width="0.1" stroke-linecap="round" stroke-miterlimit="10" x1="14.752" y1="22.864" x2="14.752" y2="0.05"/>
<line fill="none" stroke="#000000" stroke-width="0.1" stroke-linecap="round" stroke-miterlimit="10" x1="21.888" y1="22.864" x2="21.888" y2="0.05"/>
<line fill="none" stroke="#000000" stroke-width="0.1" stroke-linecap="round" stroke-miterlimit="10" x1="29.095" y1="22.864" x2="29.095" y2="0.05"/>
<line fill="none" stroke="#000000" stroke-width="0.1" stroke-linecap="round" stroke-miterlimit="10" x1="36.227" y1="22.864" x2="36.227" y2="0.05"/>
<path fill="none" stroke="#000000" stroke-width="0.1" stroke-linecap="round" stroke-miterlimit="10" d="M39.975,22.865H0.05V0.05
	h39.925V22.865z"/>
</svg>
