<?xml version="1.0" encoding="utf-8"?>
<!-- Generator: Adobe Illustrator 15.0.0, SVG Export Plug-In  -->
<!DOCTYPE svg PUBLIC "-//W3C//DTD SVG 1.0//EN" "http://www.w3.org/TR/2001/REC-SVG-20010904/DTD/svg10.dtd" [
	<!ENTITY ns_flows "http://ns.adobe.com/Flows/1.0/">
]>
<svg version="1.0"
	 xmlns="http://www.w3.org/2000/svg" xmlns:xlink="http://www.w3.org/1999/xlink" xmlns:a="http://ns.adobe.com/AdobeSVGViewerExtensions/3.0/"
	 x="0px" y="0px" width="41px" height="24px" viewBox="-0.54 -0.666 41 24" enable-background="new -0.54 -0.666 41 24"
	 xml:space="preserve">
<defs>
</defs>
<polygon fill="none" stroke="#000000" stroke-width="0.1" stroke-linecap="round" stroke-miterlimit="10" points="0.05,22.8 
	0.05,0.05 39.975,0.05 39.975,22.8 0.05,22.8 "/>
<line fill="none" stroke="#000000" stroke-width="0.1" stroke-linecap="round" stroke-miterlimit="10" x1="38.46" y1="0.434" x2="39.975" y2="1.721"/>
<line fill="none" stroke="#000000" stroke-width="0.1" stroke-linecap="round" stroke-miterlimit="10" x1="28.375" y1="0.434" x2="33.416" y2="4.945"/>
<line fill="none" stroke="#000000" stroke-width="0.1" stroke-linecap="round" stroke-miterlimit="10" x1="38.46" y1="9.46" x2="39.975" y2="10.747"/>
<line fill="none" stroke="#000000" stroke-width="0.1" stroke-linecap="round" stroke-miterlimit="10" x1="18.284" y1="0.434" x2="23.329" y2="4.945"/>
<line fill="none" stroke="#000000" stroke-width="0.1" stroke-linecap="round" stroke-miterlimit="10" x1="28.375" y1="9.46" x2="33.416" y2="13.972"/>
<line fill="none" stroke="#000000" stroke-width="0.1" stroke-linecap="round" stroke-miterlimit="10" x1="38.46" y1="18.548" x2="39.975" y2="19.9"/>
<line fill="none" stroke="#000000" stroke-width="0.1" stroke-linecap="round" stroke-miterlimit="10" x1="8.192" y1="0.434" x2="13.238" y2="4.945"/>
<line fill="none" stroke="#000000" stroke-width="0.1" stroke-linecap="round" stroke-miterlimit="10" x1="18.284" y1="9.46" x2="23.329" y2="13.972"/>
<line fill="none" stroke="#000000" stroke-width="0.1" stroke-linecap="round" stroke-miterlimit="10" x1="28.375" y1="18.548" x2="33.13" y2="22.864"/>
<line fill="none" stroke="#000000" stroke-width="0.1" stroke-linecap="round" stroke-miterlimit="10" x1="0.05" y1="2.176" x2="3.077" y2="4.945"/>
<line fill="none" stroke="#000000" stroke-width="0.1" stroke-linecap="round" stroke-miterlimit="10" x1="8.125" y1="9.46" x2="13.169" y2="13.972"/>
<line fill="none" stroke="#000000" stroke-width="0.1" stroke-linecap="round" stroke-miterlimit="10" x1="18.21" y1="18.48" x2="23.112" y2="22.8"/>
<line fill="none" stroke="#000000" stroke-width="0.1" stroke-linecap="round" stroke-miterlimit="10" x1="0.05" y1="11.197" x2="3.077" y2="13.972"/>
<line fill="none" stroke="#000000" stroke-width="0.1" stroke-linecap="round" stroke-miterlimit="10" x1="8.125" y1="18.48" x2="12.948" y2="22.8"/>
<line fill="none" stroke="#000000" stroke-width="0.1" stroke-linecap="round" stroke-miterlimit="10" x1="0.05" y1="20.289" x2="2.863" y2="22.8"/>
<line fill="none" stroke="#000000" stroke-width="0.1" stroke-linecap="round" stroke-miterlimit="10" x1="3.077" y1="4.945" x2="8.125" y2="0.434"/>
<line fill="none" stroke="#000000" stroke-width="0.1" stroke-linecap="round" stroke-miterlimit="10" x1="3.077" y1="13.972" x2="8.125" y2="9.46"/>
<line fill="none" stroke="#000000" stroke-width="0.1" stroke-linecap="round" stroke-miterlimit="10" x1="13.169" y1="4.945" x2="18.21" y2="0.434"/>
<line fill="none" stroke="#000000" stroke-width="0.1" stroke-linecap="round" stroke-miterlimit="10" x1="3.369" y1="22.8" x2="8.125" y2="18.548"/>
<line fill="none" stroke="#000000" stroke-width="0.1" stroke-linecap="round" stroke-miterlimit="10" x1="13.238" y1="13.972" x2="18.284" y2="9.46"/>
<line fill="none" stroke="#000000" stroke-width="0.1" stroke-linecap="round" stroke-miterlimit="10" x1="23.329" y1="4.945" x2="28.375" y2="0.434"/>
<line fill="none" stroke="#000000" stroke-width="0.1" stroke-linecap="round" stroke-miterlimit="10" x1="13.455" y1="22.8" x2="18.21" y2="18.548"/>
<line fill="none" stroke="#000000" stroke-width="0.1" stroke-linecap="round" stroke-miterlimit="10" x1="23.329" y1="13.972" x2="28.375" y2="9.46"/>
<line fill="none" stroke="#000000" stroke-width="0.1" stroke-linecap="round" stroke-miterlimit="10" x1="33.416" y1="4.945" x2="38.46" y2="0.434"/>
<line fill="none" stroke="#000000" stroke-width="0.1" stroke-linecap="round" stroke-miterlimit="10" x1="23.546" y1="22.8" x2="28.299" y2="18.548"/>
<line fill="none" stroke="#000000" stroke-width="0.1" stroke-linecap="round" stroke-miterlimit="10" x1="33.416" y1="13.972" x2="38.46" y2="9.46"/>
<line fill="none" stroke="#000000" stroke-width="0.1" stroke-linecap="round" stroke-miterlimit="10" x1="33.708" y1="22.8" x2="38.46" y2="18.48"/>
<path fill="none" stroke="#000000" stroke-width="0.1" stroke-linecap="round" stroke-miterlimit="10" d="M39.975,22.865H0.05V0.05
	h39.925V22.865z"/>
</svg>
