<?xml version="1.0" encoding="utf-8"?>
<!-- Generator: Adobe Illustrator 15.0.0, SVG Export Plug-In  -->
<!DOCTYPE svg PUBLIC "-//W3C//DTD SVG 1.0//EN" "http://www.w3.org/TR/2001/REC-SVG-20010904/DTD/svg10.dtd" [
	<!ENTITY ns_flows "http://ns.adobe.com/Flows/1.0/">
]>
<svg version="1.0"
	 xmlns="http://www.w3.org/2000/svg" xmlns:xlink="http://www.w3.org/1999/xlink" xmlns:a="http://ns.adobe.com/AdobeSVGViewerExtensions/3.0/"
	 x="0px" y="0px" width="41px" height="24px" viewBox="-0.539 -0.453 41 24" enable-background="new -0.539 -0.453 41 24"
	 xml:space="preserve">
<defs>
</defs>
<polygon fill="none" stroke="none" stroke-width="0.1" stroke-linecap="round" stroke-miterlimit="10" points="0.05,22.865
	0.05,0.05 39.975,0.05 39.975,22.865 0.05,22.865 "/>
<line fill="none" stroke="#000000" stroke-width="0.1" stroke-linecap="round" stroke-miterlimit="10" x1="0.05" y1="5.606" x2="6.25" y2="0.05"/>
<line fill="none" stroke="#000000" stroke-width="0.1" stroke-linecap="round" stroke-miterlimit="10" x1="0.05" y1="14.657" x2="16.335" y2="0.05"/>
<line fill="none" stroke="#000000" stroke-width="0.1" stroke-linecap="round" stroke-miterlimit="10" x1="1.059" y1="22.865" x2="26.427" y2="0.05"/>
<line fill="none" stroke="#000000" stroke-width="0.1" stroke-linecap="round" stroke-miterlimit="10" x1="11.147" y1="22.865" x2="36.588" y2="0.05"/>
<line fill="none" stroke="#000000" stroke-width="0.1" stroke-linecap="round" stroke-miterlimit="10" x1="21.238" y1="22.865" x2="39.975" y2="6.061"/>
<line fill="none" stroke="#000000" stroke-width="0.1" stroke-linecap="round" stroke-miterlimit="10" x1="31.398" y1="22.865" x2="39.975" y2="15.173"/>
<line fill="none" stroke="#000000" stroke-width="0.1" stroke-linecap="round" stroke-miterlimit="10" x1="2.07" y1="22.865" x2="0.05" y2="21.056"/>
<line fill="none" stroke="#000000" stroke-width="0.1" stroke-linecap="round" stroke-miterlimit="10" x1="12.158" y1="22.865" x2="0.05" y2="12.007"/>
<line fill="none" stroke="#000000" stroke-width="0.1" stroke-linecap="round" stroke-miterlimit="10" x1="22.25" y1="22.865" x2="0.05" y2="2.895"/>
<line fill="none" stroke="#000000" stroke-width="0.1" stroke-linecap="round" stroke-miterlimit="10" x1="32.41" y1="22.865" x2="6.969" y2="0.05"/>
<line fill="none" stroke="#000000" stroke-width="0.1" stroke-linecap="round" stroke-miterlimit="10" x1="39.975" y1="20.604" x2="17.056" y2="0.05"/>
<line fill="none" stroke="#000000" stroke-width="0.1" stroke-linecap="round" stroke-miterlimit="10" x1="39.975" y1="11.554" x2="27.22" y2="0.05"/>
<line fill="none" stroke="#000000" stroke-width="0.1" stroke-linecap="round" stroke-miterlimit="10" x1="39.975" y1="2.439" x2="37.309" y2="0.05"/>
<path fill="none" stroke="none" stroke-width="0.1" stroke-linecap="round" stroke-miterlimit="10" d="M39.975,22.865H0.05V0.05
	h39.925V22.865z"/>
</svg>
