<?xml version="1.0" encoding="utf-8"?>
<!-- Generator: Adobe Illustrator 15.0.0, SVG Export Plug-In  -->
<!DOCTYPE svg PUBLIC "-//W3C//DTD SVG 1.0//EN" "http://www.w3.org/TR/2001/REC-SVG-20010904/DTD/svg10.dtd" [
	<!ENTITY ns_flows "http://ns.adobe.com/Flows/1.0/">
]>
<svg version="1.0"
	 xmlns="http://www.w3.org/2000/svg" xmlns:xlink="http://www.w3.org/1999/xlink" xmlns:a="http://ns.adobe.com/AdobeSVGViewerExtensions/3.0/"
	 x="0px" y="0px" width="41px" height="24px" viewBox="-0.54 -0.814 41 24" enable-background="new -0.54 -0.814 41 24"
	 xml:space="preserve">
<defs>
</defs>
<polygon fill="none" stroke="none" stroke-width="0.1" stroke-linecap="round" stroke-miterlimit="10" points="0.05,22.864
	0.05,0.05 39.975,0.05 39.975,22.864 0.05,22.864 "/>
<polyline fill="none" stroke="none" stroke-width="0.1" stroke-linecap="round"
		  stroke-miterlimit="10" points="0.05,22.864
	0.05,0.05 39.975,0.05 39.975,22.864 "/>
<line fill="none" stroke="none" stroke-width="0.1" stroke-linecap="round"
	  stroke-miterlimit="10" x1="39.975" y1="22.864" x2="0.05" y2="22.864"/>
<line fill="none" stroke="#000000" stroke-width="0.1" stroke-linecap="round" stroke-miterlimit="10" x1="5.162" y1="0.24" x2="7.246" y2="0.24"/>
<line fill="none" stroke="#000000" stroke-width="0.1" stroke-linecap="round" stroke-miterlimit="10" x1="13.716" y1="0.24" x2="15.874" y2="0.24"/>
<line fill="none" stroke="#000000" stroke-width="0.1" stroke-linecap="round" stroke-miterlimit="10" x1="22.279" y1="0.24" x2="24.439" y2="0.24"/>
<line fill="none" stroke="#000000" stroke-width="0.1" stroke-linecap="round" stroke-miterlimit="10" x1="30.841" y1="0.24" x2="32.995" y2="0.24"/>
<line fill="none" stroke="#000000" stroke-width="0.1" stroke-linecap="round" stroke-miterlimit="10" x1="39.4" y1="0.24" x2="39.975" y2="0.24"/>
<line fill="none" stroke="#000000" stroke-width="0.1" stroke-linecap="round" stroke-miterlimit="10" x1="0.844" y1="4.118" x2="3" y2="4.118"/>
<line fill="none" stroke="#000000" stroke-width="0.1" stroke-linecap="round" stroke-miterlimit="10" x1="9.403" y1="4.118" x2="11.562" y2="4.118"/>
<line fill="none" stroke="#000000" stroke-width="0.1" stroke-linecap="round" stroke-miterlimit="10" x1="17.962" y1="4.118" x2="20.121" y2="4.118"/>
<line fill="none" stroke="#000000" stroke-width="0.1" stroke-linecap="round" stroke-miterlimit="10" x1="26.52" y1="4.118" x2="28.683" y2="4.118"/>
<line fill="none" stroke="#000000" stroke-width="0.1" stroke-linecap="round" stroke-miterlimit="10" x1="35.082" y1="4.118" x2="37.244" y2="4.118"/>
<line fill="none" stroke="#000000" stroke-width="0.1" stroke-linecap="round" stroke-miterlimit="10" x1="5.162" y1="7.933" x2="7.246" y2="7.933"/>
<line fill="none" stroke="#000000" stroke-width="0.1" stroke-linecap="round" stroke-miterlimit="10" x1="13.716" y1="7.933" x2="15.874" y2="7.933"/>
<line fill="none" stroke="#000000" stroke-width="0.1" stroke-linecap="round" stroke-miterlimit="10" x1="22.279" y1="7.933" x2="24.439" y2="7.933"/>
<line fill="none" stroke="#000000" stroke-width="0.1" stroke-linecap="round" stroke-miterlimit="10" x1="30.841" y1="7.933" x2="32.995" y2="7.933"/>
<line fill="none" stroke="#000000" stroke-width="0.1" stroke-linecap="round" stroke-miterlimit="10" x1="39.4" y1="7.933" x2="39.975" y2="7.933"/>
<line fill="none" stroke="#000000" stroke-width="0.1" stroke-linecap="round" stroke-miterlimit="10" x1="0.844" y1="11.812" x2="3" y2="11.812"/>
<line fill="none" stroke="#000000" stroke-width="0.1" stroke-linecap="round" stroke-miterlimit="10" x1="9.403" y1="11.812" x2="11.562" y2="11.812"/>
<line fill="none" stroke="#000000" stroke-width="0.1" stroke-linecap="round" stroke-miterlimit="10" x1="17.962" y1="11.812" x2="20.121" y2="11.812"/>
<line fill="none" stroke="#000000" stroke-width="0.1" stroke-linecap="round" stroke-miterlimit="10" x1="26.52" y1="11.812" x2="28.683" y2="11.812"/>
<line fill="none" stroke="#000000" stroke-width="0.1" stroke-linecap="round" stroke-miterlimit="10" x1="35.082" y1="11.812" x2="37.244" y2="11.812"/>
<line fill="none" stroke="#000000" stroke-width="0.1" stroke-linecap="round" stroke-miterlimit="10" x1="5.162" y1="15.691" x2="7.246" y2="15.691"/>
<line fill="none" stroke="#000000" stroke-width="0.1" stroke-linecap="round" stroke-miterlimit="10" x1="13.716" y1="15.691" x2="15.874" y2="15.691"/>
<line fill="none" stroke="#000000" stroke-width="0.1" stroke-linecap="round" stroke-miterlimit="10" x1="22.279" y1="15.691" x2="24.439" y2="15.691"/>
<line fill="none" stroke="#000000" stroke-width="0.1" stroke-linecap="round" stroke-miterlimit="10" x1="30.841" y1="15.691" x2="32.995" y2="15.691"/>
<line fill="none" stroke="#000000" stroke-width="0.1" stroke-linecap="round" stroke-miterlimit="10" x1="39.4" y1="15.691" x2="39.975" y2="15.691"/>
<line fill="none" stroke="#000000" stroke-width="0.1" stroke-linecap="round" stroke-miterlimit="10" x1="0.844" y1="19.506" x2="3" y2="19.506"/>
<line fill="none" stroke="#000000" stroke-width="0.1" stroke-linecap="round" stroke-miterlimit="10" x1="9.403" y1="19.506" x2="11.562" y2="19.506"/>
<line fill="none" stroke="#000000" stroke-width="0.1" stroke-linecap="round" stroke-miterlimit="10" x1="17.962" y1="19.506" x2="20.121" y2="19.506"/>
<line fill="none" stroke="#000000" stroke-width="0.1" stroke-linecap="round" stroke-miterlimit="10" x1="26.52" y1="19.506" x2="28.683" y2="19.506"/>
<line fill="none" stroke="#000000" stroke-width="0.1" stroke-linecap="round" stroke-miterlimit="10" x1="35.082" y1="19.506" x2="37.244" y2="19.506"/>
<line fill="none" stroke="#000000" stroke-width="0.1" stroke-linecap="round" stroke-miterlimit="10" x1="1.995" y1="20.474" x2="1.995" y2="18.601"/>
<line fill="none" stroke="#000000" stroke-width="0.1" stroke-linecap="round" stroke-miterlimit="10" x1="1.995" y1="12.778" x2="1.995" y2="10.908"/>
<line fill="none" stroke="#000000" stroke-width="0.1" stroke-linecap="round" stroke-miterlimit="10" x1="1.995" y1="5.091" x2="1.995" y2="3.215"/>
<line fill="none" stroke="#000000" stroke-width="0.1" stroke-linecap="round" stroke-miterlimit="10" x1="6.312" y1="22.864" x2="6.312" y2="22.413"/>
<line fill="none" stroke="#000000" stroke-width="0.1" stroke-linecap="round" stroke-miterlimit="10" x1="6.312" y1="16.661" x2="6.312" y2="14.722"/>
<line fill="none" stroke="#000000" stroke-width="0.1" stroke-linecap="round" stroke-miterlimit="10" x1="6.312" y1="8.968" x2="6.312" y2="7.031"/>
<line fill="none" stroke="#000000" stroke-width="0.1" stroke-linecap="round" stroke-miterlimit="10" x1="6.312" y1="1.275" x2="6.312" y2="0.113"/>
<line fill="none" stroke="#000000" stroke-width="0.1" stroke-linecap="round" stroke-miterlimit="10" x1="10.557" y1="20.474" x2="10.557" y2="18.601"/>
<line fill="none" stroke="#000000" stroke-width="0.1" stroke-linecap="round" stroke-miterlimit="10" x1="10.557" y1="12.778" x2="10.557" y2="10.908"/>
<line fill="none" stroke="#000000" stroke-width="0.1" stroke-linecap="round" stroke-miterlimit="10" x1="10.557" y1="5.091" x2="10.557" y2="3.215"/>
<line fill="none" stroke="#000000" stroke-width="0.1" stroke-linecap="round" stroke-miterlimit="10" x1="14.869" y1="22.864" x2="14.869" y2="22.413"/>
<line fill="none" stroke="#000000" stroke-width="0.1" stroke-linecap="round" stroke-miterlimit="10" x1="14.869" y1="16.661" x2="14.869" y2="14.722"/>
<line fill="none" stroke="#000000" stroke-width="0.1" stroke-linecap="round" stroke-miterlimit="10" x1="14.869" y1="8.968" x2="14.869" y2="7.031"/>
<line fill="none" stroke="#000000" stroke-width="0.1" stroke-linecap="round" stroke-miterlimit="10" x1="14.869" y1="1.275" x2="14.869" y2="0.113"/>
<line fill="none" stroke="#000000" stroke-width="0.1" stroke-linecap="round" stroke-miterlimit="10" x1="19.112" y1="20.474" x2="19.112" y2="18.601"/>
<line fill="none" stroke="#000000" stroke-width="0.1" stroke-linecap="round" stroke-miterlimit="10" x1="19.112" y1="12.778" x2="19.112" y2="10.908"/>
<line fill="none" stroke="#000000" stroke-width="0.1" stroke-linecap="round" stroke-miterlimit="10" x1="19.112" y1="5.091" x2="19.112" y2="3.215"/>
<line fill="none" stroke="#000000" stroke-width="0.1" stroke-linecap="round" stroke-miterlimit="10" x1="23.427" y1="22.864" x2="23.427" y2="22.413"/>
<line fill="none" stroke="#000000" stroke-width="0.1" stroke-linecap="round" stroke-miterlimit="10" x1="23.427" y1="16.661" x2="23.427" y2="14.722"/>
<line fill="none" stroke="#000000" stroke-width="0.1" stroke-linecap="round" stroke-miterlimit="10" x1="23.427" y1="8.968" x2="23.427" y2="7.031"/>
<line fill="none" stroke="#000000" stroke-width="0.1" stroke-linecap="round" stroke-miterlimit="10" x1="23.427" y1="1.275" x2="23.427" y2="0.113"/>
<line fill="none" stroke="#000000" stroke-width="0.1" stroke-linecap="round" stroke-miterlimit="10" x1="27.674" y1="20.474" x2="27.674" y2="18.601"/>
<line fill="none" stroke="#000000" stroke-width="0.1" stroke-linecap="round" stroke-miterlimit="10" x1="27.674" y1="12.778" x2="27.674" y2="10.908"/>
<line fill="none" stroke="#000000" stroke-width="0.1" stroke-linecap="round" stroke-miterlimit="10" x1="27.674" y1="5.091" x2="27.674" y2="3.215"/>
<line fill="none" stroke="#000000" stroke-width="0.1" stroke-linecap="round" stroke-miterlimit="10" x1="31.992" y1="22.864" x2="31.992" y2="22.413"/>
<line fill="none" stroke="#000000" stroke-width="0.1" stroke-linecap="round" stroke-miterlimit="10" x1="31.992" y1="16.661" x2="31.992" y2="14.722"/>
<line fill="none" stroke="#000000" stroke-width="0.1" stroke-linecap="round" stroke-miterlimit="10" x1="31.992" y1="8.968" x2="31.992" y2="7.031"/>
<line fill="none" stroke="#000000" stroke-width="0.1" stroke-linecap="round" stroke-miterlimit="10" x1="31.992" y1="1.275" x2="31.992" y2="0.113"/>
<line fill="none" stroke="#000000" stroke-width="0.1" stroke-linecap="round" stroke-miterlimit="10" x1="36.233" y1="20.474" x2="36.233" y2="18.601"/>
<line fill="none" stroke="#000000" stroke-width="0.1" stroke-linecap="round" stroke-miterlimit="10" x1="36.233" y1="12.778" x2="36.233" y2="10.908"/>
<line fill="none" stroke="#000000" stroke-width="0.1" stroke-linecap="round" stroke-miterlimit="10" x1="36.233" y1="5.091" x2="36.233" y2="3.215"/>
<path fill="none" stroke="none" stroke-width="0.1" stroke-linecap="round" stroke-miterlimit="10" d="M39.975,22.865H0.05V0.05
	h39.925V22.865z"/>
</svg>
