<?xml version="1.0" encoding="utf-8"?>
<!-- Generator: Adobe Illustrator 15.0.0, SVG Export Plug-In  -->
<!DOCTYPE svg PUBLIC "-//W3C//DTD SVG 1.0//EN" "http://www.w3.org/TR/2001/REC-SVG-20010904/DTD/svg10.dtd" [
	<!ENTITY ns_flows "http://ns.adobe.com/Flows/1.0/">
]>
<svg version="1.0"
	 xmlns="http://www.w3.org/2000/svg" xmlns:xlink="http://www.w3.org/1999/xlink" xmlns:a="http://ns.adobe.com/AdobeSVGViewerExtensions/3.0/"
	 x="0px" y="0px" width="41px" height="24px" viewBox="-0.54 -0.549 41 24" enable-background="new -0.54 -0.549 41 24"
	 xml:space="preserve">
<defs>
</defs>
<polygon fill="none" stroke="none" stroke-width="0.1" stroke-linecap="round"
		 stroke-miterlimit="10" points="0.05,22.864
	0.05,0.05 39.975,0.05 39.975,22.864 0.05,22.864 "/>
<line fill="none" stroke="#000000" stroke-width="0.1" stroke-linecap="round" stroke-miterlimit="10" x1="0.05" y1="4.12" x2="4.594" y2="0.05"/>
<line fill="none" stroke="#000000" stroke-width="0.1" stroke-linecap="round" stroke-miterlimit="10" x1="0.05" y1="13.361" x2="14.824" y2="0.05"/>
<line fill="none" stroke="#000000" stroke-width="0.1" stroke-linecap="round" stroke-miterlimit="10" x1="0.05" y1="22.544" x2="25.134" y2="0.05"/>
<line fill="none" stroke="#000000" stroke-width="0.1" stroke-linecap="round" stroke-miterlimit="10" x1="9.995" y1="22.864" x2="35.368" y2="0.05"/>
<line fill="none" stroke="#000000" stroke-width="0.1" stroke-linecap="round" stroke-miterlimit="10" x1="20.23" y1="22.864" x2="39.975" y2="5.156"/>
<line fill="none" stroke="#000000" stroke-width="0.1" stroke-linecap="round" stroke-miterlimit="10" x1="30.535" y1="22.864" x2="39.975" y2="14.397"/>
<line fill="none" stroke="#000000" stroke-width="0.1" stroke-linecap="round" stroke-miterlimit="10" x1="1.563" y1="22.864" x2="0.05" y2="21.445"/>
<line fill="none" stroke="#000000" stroke-width="0.1" stroke-linecap="round" stroke-miterlimit="10" x1="11.869" y1="22.864" x2="8.337" y2="19.765"/>
<line fill="none" stroke="#000000" stroke-width="0.1" stroke-linecap="round" stroke-miterlimit="10" x1="0.622" y1="12.847" x2="0.05" y2="12.264"/>
<line fill="none" stroke="#000000" stroke-width="0.1" stroke-linecap="round" stroke-miterlimit="10" x1="16.048" y1="17.434" x2="3.218" y2="5.93"/>
<line fill="none" stroke="#000000" stroke-width="0.1" stroke-linecap="round" stroke-miterlimit="10" x1="31.403" y1="22.024" x2="18.573" y2="10.52"/>
<line fill="none" stroke="#000000" stroke-width="0.1" stroke-linecap="round" stroke-miterlimit="10" x1="10.863" y1="3.604" x2="6.966" y2="0.05"/>
<line fill="none" stroke="#000000" stroke-width="0.1" stroke-linecap="round" stroke-miterlimit="10" x1="39.975" y1="20.41" x2="33.997" y2="15.11"/>
<line fill="none" stroke="#000000" stroke-width="0.1" stroke-linecap="round" stroke-miterlimit="10" x1="26.288" y1="8.194" x2="17.27" y2="0.05"/>
<line fill="none" stroke="#000000" stroke-width="0.1" stroke-linecap="round" stroke-miterlimit="10" x1="39.975" y1="11.229" x2="28.877" y2="1.275"/>
<path fill="none" stroke="none" stroke-width="0.1" stroke-linecap="round"
	  stroke-miterlimit="10" d="M39.975,22.865H0.05V0.05
	h39.925V22.865z"/>
</svg>
